<svg id="Capa_1" enable-background="new 0 0 512 512" height="512" viewBox="0 0 512 512" width="512" xmlns="http://www.w3.org/2000/svg"><g><g><path d="m256.002 383.425c-58.724 0-107.684 41.808-118.738 97.283-2.456 12.324 7.076 23.793 19.643 23.793h157.801v-105.908c-17.391-9.66-37.404-15.168-58.706-15.168z" fill="#90ee92"/></g><g><path d="m284.537 386.813c-9.151-2.211-18.706-3.388-28.537-3.388-58.724 0-107.684 41.808-118.738 97.282-2.456 12.324 7.076 23.793 19.643 23.793h35.081c-.001-57.042 39.449-104.862 92.551-117.687z" fill="#61dd74"/></g><g><path d="m296.251 390.285c-12.594-4.438-26.138-6.861-40.249-6.861-14.11 0-27.654 2.42-40.247 6.857 3.263 19.285 20.035 33.976 40.248 33.976 20.212.001 36.984-14.688 40.248-33.972z" fill="#ffcdbe"/></g><g><g><path d="m256.002 43.501c-88.366 0-160 71.634-160 160v15.245h320v-15.246c0-88.365-71.635-159.999-160-159.999z" fill="#e3a67b"/></g></g><g><path d="m349.3 46.145c-5.184-6.366-28.793-6.322-50.962-4.708-16.025-19.896-32.502-33.937-42.336-33.937-9.835 0-26.312 14.041-42.336 33.937-22.169-1.613-45.778-1.657-50.962 4.708-10.299 12.646-39.202 180.855 93.298 180.855s103.596-168.209 93.298-180.855z" fill="#f2b88f"/></g><g><circle cx="401.129" cy="251.131" fill="#ffdecf" r="36.081"/></g><g><circle cx="110.871" cy="251.131" fill="#ffcdbe" r="36.081"/></g><g><g><path d="m241.876 138.538c-40.954-11.542-98.331 6.06-126.419 76.799-2.956 11.641-4.508 23.843-4.455 36.416.337 79.84 67.37 145.549 147.202 144.36 79.065-1.178 142.797-65.638 142.797-144.984 0-12.353-1.549-24.343-4.456-35.792-28.088-70.738-85.465-88.341-126.419-76.799-9.252 2.608-18.997 2.608-28.25 0z" fill="#ffeee5"/></g></g><g><g><path d="m161.002 251.128c0-47.344 22.696-89.38 57.796-115.841-37.302-.373-80.232 21.854-103.34 80.05-2.956 11.641-4.508 23.843-4.455 36.416.337 79.84 67.37 145.549 147.202 144.36 7.761-.116 15.372-.85 22.792-2.139-68.164-11.85-119.995-71.292-119.995-142.846z" fill="#ffdecf"/></g></g><g><g><g><ellipse cx="176.447" cy="280.122" fill="#ffa1ac" rx="29.355" ry="23.377"/></g><g><ellipse cx="335.56" cy="280.122" fill="#ffa1ac" rx="29.355" ry="23.377"/></g></g><g><path d="m193.555 265.119c-4.142 0-7.5-3.358-7.5-7.5v-12c0-4.142 3.358-7.5 7.5-7.5s7.5 3.358 7.5 7.5v12c0 4.142-3.358 7.5-7.5 7.5z"/></g><g><path d="m318.452 265.119c-4.143 0-7.5-3.358-7.5-7.5v-12c0-4.142 3.357-7.5 7.5-7.5s7.5 3.358 7.5 7.5v12c0 4.142-3.357 7.5-7.5 7.5z"/></g><g><path d="m256.003 272.262c-8.478 0-16.539-3.671-22.118-10.073-2.721-3.123-2.396-7.86.727-10.582 3.124-2.721 7.86-2.396 10.582.727 2.729 3.132 6.669 4.928 10.81 4.928s8.081-1.796 10.812-4.929c2.721-3.123 7.459-3.447 10.581-.726 3.123 2.722 3.447 7.459.726 10.582-5.581 6.402-13.644 10.073-22.12 10.073z"/></g></g><g><path d="m396.003 363.204v122.592c0 10.33-8.374 18.704-18.704 18.704h-62.592c-10.33 0-18.704-8.374-18.704-18.704v-122.592c0-10.33 8.374-18.704 18.704-18.704h62.592c10.33 0 18.704 8.374 18.704 18.704z" fill="#f2f6fc"/></g><g><path d="m336.003 485.796v-122.592c0-10.33 8.374-18.704 18.704-18.704h-40c-10.33 0-18.704 8.374-18.704 18.704v122.592c0 10.33 8.374 18.704 18.704 18.704h40c-10.33 0-18.704-8.374-18.704-18.704z" fill="#e9edf5"/></g><g><path d="m407.21 485.796c-16.569 0-30-13.431-30-30v-40c0-16.569 13.431-30 30-30 16.569 0 30 13.431 30 30v40c0 16.569-13.432 30-30 30z" fill="#ffeee5"/></g><g><path d="m407.21 455.796v-40c0-11.102 6.036-20.789 15-25.977-4.414-2.554-9.534-4.023-15-4.023-16.569 0-30 13.432-30 30v40c0 16.568 13.431 30 30 30 5.466 0 10.586-1.469 15-4.023-8.965-5.188-15-14.875-15-25.977z" fill="#ffdecf"/></g><g><circle cx="346.003" cy="383.425" r="7.5"/><path d="m407.21 378.296c-1.251 0-2.487.064-3.707.185v-15.276c0-12.928-9.413-23.692-21.744-25.817 8.993-13.116 15.854-27.541 20.373-42.701 23.567-.537 42.578-19.861 42.578-43.556 0-15.856-8.514-29.757-21.208-37.383v-10.248c0-49.161-21.388-95.452-58.738-127.368-2.233-17.238-6.089-30.351-9.649-34.722-4.281-5.257-14.057-10.234-53.428-7.719-11.5-13.82-30.653-33.691-45.686-33.691-15.032 0-34.186 19.871-45.686 33.69-39.374-2.514-49.146 2.462-53.427 7.719-3.558 4.368-7.412 17.481-9.646 34.72-37.349 31.915-58.741 78.214-58.741 127.371v10.246c-12.696 7.625-21.211 21.527-21.211 37.385 0 23.714 19.041 43.051 42.636 43.557 7.329 24.24 20.778 46.504 39.587 64.958 13.655 13.396 29.264 23.934 46.119 31.334-33.645 17.962-58.18 50.4-65.724 88.262-1.604 8.047.471 16.312 5.691 22.675 5.257 6.408 13.023 10.083 21.307 10.083h220.393c11.955 0 22.058-8.05 25.192-19.011 1.547.195 3.12.307 4.719.307 20.678 0 37.5-16.822 37.5-37.5v-40c0-20.678-16.822-37.5-37.5-37.5zm-1.351-98.983c1.741-9.245 2.643-18.679 2.643-28.184 0-9.474-.877-18.913-2.607-28.174 13.498 2.276 23.815 14.041 23.815 28.176 0 14.148-10.335 25.921-23.851 28.182zm2.643-75.813v4.686c-2.301-.394-4.66-.612-7.068-.629-9.859-22.864-23.439-41.52-39.98-55.071 4.37-17.713 5.64-36.749 5.087-54.04 26.848 28.218 41.961 65.624 41.961 105.054zm-195.38-154.583c2.45.177 4.842-.859 6.386-2.776 18.4-22.848 31.905-31.141 36.493-31.141s18.094 8.293 36.495 31.141c1.543 1.918 3.941 2.957 6.385 2.776 36.208-2.636 43.686 1.386 44.637 2.035 3.567 5.849 13.626 49.254 4.697 92.167-2.17-1.312-4.377-2.554-6.626-3.709-23.353-11.994-49.452-14.869-73.495-8.091-7.909 2.229-16.272 2.229-24.182 0-22.076-6.221-52.123-5.163-80.13 11.763-8.915-42.903 1.141-86.288 4.705-92.13.95-.648 8.429-4.669 44.635-2.035zm-130.832 202.214c0-14.136 10.318-25.901 23.816-28.176-1.77 9.473-2.644 19.133-2.604 28.83.039 9.328.942 18.532 2.651 27.531-13.521-2.257-23.863-14.033-23.863-28.185zm36.213.59c-.049-11.521 1.333-22.98 4.106-34.069 2.685-6.707 5.726-13.098 9.042-19.001 2.028-3.611.746-8.184-2.866-10.212-3.612-2.029-8.183-.746-10.212 2.866-2.879 5.125-5.557 10.577-8.003 16.253-2.408.017-4.768.234-7.069.628v-4.686c0-39.427 15.114-76.839 41.963-105.056-.553 17.286.714 36.314 5.079 54.02-4.663 3.824-9.221 8.148-13.618 13.037-2.77 3.08-2.519 7.822.562 10.592 3.079 2.769 7.822 2.518 10.592-.562 29.431-32.725 66.697-36.838 91.764-29.774 10.572 2.98 21.75 2.98 32.319 0 39.609-11.166 91.165 6.761 117.233 71.895 2.726 10.899 4.107 22.16 4.107 33.477 0 31.208-10.671 61.583-30.106 85.871h-48.689c-14.449 0-26.204 11.755-26.204 26.204v21.55c-9.918 2.402-20.12 3.706-30.409 3.859-.685.01-1.366.015-2.048.015-35.859 0-69.89-14.048-96.028-39.69-26.617-26.113-41.361-60.639-41.515-97.217zm165.811 149.268c-5.961 9.546-16.591 15.769-28.31 15.769-11.868 0-22.459-6.228-28.375-15.827 9.287 1.78 18.787 2.698 28.41 2.698.758 0 1.519-.006 2.278-.017 8.753-.131 17.451-1.019 25.997-2.623zm-137.118 91.414c-2.36-2.877-3.299-6.605-2.577-10.229 7.25-36.386 32.264-67.112 66.091-81.853 6.917 18.633 24.798 31.438 45.293 31.438 12.326 0 23.815-4.756 32.5-12.649v66.687c0 4.007.907 7.805 2.522 11.204h-134.119c-3.774-.001-7.313-1.676-9.71-4.598zm282.514-36.607c0 12.407-10.094 22.5-22.5 22.5s-22.5-10.093-22.5-22.5v-5c0-4.142-3.357-7.5-7.5-7.5s-7.5 3.358-7.5 7.5v5c0 13.765 7.46 25.814 18.544 32.336-1.078 5.06-5.579 8.868-10.955 8.868h-62.592c-6.178 0-11.204-5.026-11.204-11.204v-122.592c0-6.178 5.026-11.204 11.204-11.204h62.592c6.178 0 11.204 5.026 11.204 11.204v20.112c-11.221 6.488-18.793 18.612-18.793 32.48v5c0 4.142 3.357 7.5 7.5 7.5s7.5-3.358 7.5-7.5v-5c0-12.407 10.094-22.5 22.5-22.5s22.5 10.093 22.5 22.5z"/></g></g></svg>