<?xml version="1.0"?>
<svg xmlns="http://www.w3.org/2000/svg" xmlns:xlink="http://www.w3.org/1999/xlink" xmlns:svgjs="http://svgjs.com/svgjs" version="1.1" width="512" height="512" x="0" y="0" viewBox="0 0 512 512" style="enable-background:new 0 0 512 512" xml:space="preserve" class=""><g><g xmlns="http://www.w3.org/2000/svg"><path d="m266.606 319.547c-5.857-5.858-15.355-5.858-21.213 0l-37.077 37.077c-5.858 5.858-5.858 15.355 0 21.213 5.857 5.858 15.355 5.858 21.213 0l26.471-26.47 26.471 26.47c2.929 2.929 6.768 4.394 10.606 4.394s7.678-1.464 10.606-4.394c5.858-5.858 5.858-15.355 0-21.213z" fill="#000000" data-original="#000000" style="" class=""/><path d="m222.084 236.289v-13.372c0-23.251-18.916-42.167-42.167-42.167h-13.698c-29.362 0-53.25 23.888-53.25 53.25v12.753c0 23.592 19.193 42.785 42.785 42.785h13.081c29.361.001 53.249-23.887 53.249-53.249zm-30 0c0 12.82-10.43 23.25-23.25 23.25h-13.081c-7.049 0-12.785-5.735-12.785-12.785v-12.754c0-12.82 10.43-23.25 23.25-23.25h13.698c6.709 0 12.167 5.458 12.167 12.167v13.372z" fill="#000000" data-original="#000000" style="" class=""/><path d="m345.781 180.75h-13.698c-23.251 0-42.167 18.916-42.167 42.167v13.372c0 29.362 23.888 53.25 53.25 53.25h13.08c23.592 0 42.785-19.193 42.785-42.785v-12.754c0-29.362-23.888-53.25-53.25-53.25zm23.25 66.003c0 7.05-5.735 12.785-12.785 12.785h-13.08c-12.82 0-23.25-10.43-23.25-23.25v-13.372c0-6.709 5.458-12.167 12.167-12.167h13.698c12.82 0 23.25 10.43 23.25 23.25z" fill="#000000" data-original="#000000" style="" class=""/><path d="m493.462 237.461c0-63.428-24.7-123.06-69.551-167.911s-104.483-69.55-167.911-69.55-123.06 24.7-167.911 69.551-69.551 104.482-69.551 167.91c0 36.499 8.049 63.217 26.728 87.944-.337 3.232-.507 6.459-.507 9.651 0 34.269 18.519 65.449 47.933 81.985v45.214c0 27.429 22.315 49.744 49.744 49.744h227.128c27.429 0 49.743-22.315 49.743-49.744v-43.965c13.325-7.007 24.769-17.106 33.469-29.618 10.979-15.787 16.781-34.326 16.781-53.614 0-4.131-.272-8.269-.813-12.368 17.271-23.957 24.718-49.872 24.718-85.229zm-52.341 72.028c-2.765 3.49-3.837 8.027-2.926 12.385.904 4.324 1.362 8.76 1.362 13.183 0 26.55-15.983 49.965-40.72 59.652-5.748 2.251-9.53 7.794-9.53 13.967v53.58c0 10.887-8.856 19.744-19.743 19.744h-24.41v-22.077c0-8.284-6.716-15-15-15s-15 6.716-15 15v22.077h-44.154v-22.077c0-8.284-6.716-15-15-15s-15 6.716-15 15v22.077h-44.154v-22.077c0-8.284-6.716-15-15-15s-15 6.716-15 15v22.077h-24.41c-10.887 0-19.744-8.857-19.744-19.744v-54.514c0-6-3.575-11.422-9.089-13.786-23.597-10.118-38.844-33.237-38.844-58.899 0-3.707.342-7.507 1.015-11.295.771-4.332-.4-8.784-3.201-12.177-17.072-20.677-24.035-42.152-24.035-74.124 0-114.394 93.067-207.461 207.462-207.461s207.462 93.067 207.462 207.461c0 31.133-6.473 52.001-22.341 72.028z" fill="#000000" data-original="#000000" style="" class=""/></g></g></svg>
